<svg width="512" height="64" xmlns="http://www.w3.org/2000/svg">
  <!-- Frame 0: Idle 1 -->
  <g id="frame0">
    <ellipse cx="32" cy="42" rx="16" ry="20" fill="#E67E22"/>
    <circle cx="32" cy="22" r="12" fill="#E67E22"/>
    <polygon points="22,12 27,2 32,12" fill="#E67E22"/>
    <polygon points="32,12 37,2 42,12" fill="#E67E22"/>
    <rect x="20" y="52" width="5" height="12" fill="#E67E22"/>
    <rect x="27" y="52" width="5" height="12" fill="#E67E22"/>
    <rect x="34" y="52" width="5" height="12" fill="#E67E22"/>
    <rect x="41" y="52" width="5" height="12" fill="#E67E22"/>
    <circle cx="28" cy="20" r="2" fill="white"/>
    <circle cx="36" cy="20" r="2" fill="white"/>
    <circle cx="28" cy="20" r="1" fill="black"/>
    <circle cx="36" cy="20" r="1" fill="black"/>
    <polygon points="30,26 34,26 32,28" fill="#FFB6C1"/>
  </g>
  
  <!-- Frame 1: Idle 2 -->
  <g id="frame1">
    <ellipse cx="96" cy="42" rx="16" ry="20" fill="#E67E22"/>
    <circle cx="96" cy="20" r="12" fill="#E67E22"/>
    <polygon points="86,10 91,0 96,10" fill="#E67E22"/>
    <polygon points="96,10 101,0 106,10" fill="#E67E22"/>
    <rect x="84" y="52" width="5" height="12" fill="#E67E22"/>
    <rect x="91" y="52" width="5" height="12" fill="#E67E22"/>
    <rect x="98" y="52" width="5" height="12" fill="#E67E22"/>
    <rect x="105" y="52" width="5" height="12" fill="#E67E22"/>
    <circle cx="92" cy="18" r="2" fill="white"/>
    <circle cx="100" cy="18" r="2" fill="white"/>
    <circle cx="92" cy="18" r="1" fill="black"/>
    <circle cx="100" cy="18" r="1" fill="black"/>
    <polygon points="94,24 98,24 96,26" fill="#FFB6C1"/>
  </g>
  
  <!-- Frame 2-5: Walking -->
  <g id="frame2">
    <ellipse cx="160" cy="42" rx="16" ry="20" fill="#E67E22"/>
    <circle cx="160" cy="22" r="12" fill="#E67E22"/>
    <polygon points="150,12 155,2 160,12" fill="#E67E22"/>
    <polygon points="160,12 165,2 170,12" fill="#E67E22"/>
    <rect x="148" y="52" width="5" height="10" fill="#E67E22"/>
    <rect x="155" y="54" width="5" height="10" fill="#E67E22"/>
    <rect x="162" y="52" width="5" height="10" fill="#E67E22"/>
    <rect x="169" y="54" width="5" height="10" fill="#E67E22"/>
  </g>
  
  <g id="frame3">
    <ellipse cx="224" cy="42" rx="16" ry="20" fill="#E67E22"/>
    <circle cx="224" cy="22" r="12" fill="#E67E22"/>
    <rect x="212" y="54" width="5" height="10" fill="#E67E22"/>
    <rect x="219" y="52" width="5" height="10" fill="#E67E22"/>
    <rect x="226" y="54" width="5" height="10" fill="#E67E22"/>
    <rect x="233" y="52" width="5" height="10" fill="#E67E22"/>
  </g>
  
  <g id="frame4">
    <ellipse cx="288" cy="42" rx="16" ry="20" fill="#E67E22"/>
    <circle cx="288" cy="22" r="12" fill="#E67E22"/>
    <rect x="276" y="52" width="5" height="10" fill="#E67E22"/>
    <rect x="283" y="54" width="5" height="10" fill="#E67E22"/>
    <rect x="290" y="52" width="5" height="10" fill="#E67E22"/>
    <rect x="297" y="54" width="5" height="10" fill="#E67E22"/>
  </g>
  
  <g id="frame5">
    <ellipse cx="352" cy="42" rx="16" ry="20" fill="#E67E22"/>
    <circle cx="352" cy="22" r="12" fill="#E67E22"/>
    <rect x="340" y="54" width="5" height="10" fill="#E67E22"/>
    <rect x="347" y="52" width="5" height="10" fill="#E67E22"/>
    <rect x="354" y="54" width="5" height="10" fill="#E67E22"/>
    <rect x="361" y="52" width="5" height="10" fill="#E67E22"/>
  </g>
  
  <!-- Frame 6-7: Sleeping -->
  <g id="frame6">
    <ellipse cx="416" cy="48" rx="22" ry="16" fill="#E67E22"/>
    <path d="M 394 48 Q 416 30 438 48" fill="#E67E22"/>
  </g>
  
  <g id="frame7">
    <ellipse cx="480" cy="48" rx="22" ry="16" fill="#E67E22"/>
    <path d="M 458 48 Q 480 30 502 48" fill="#E67E22"/>
    <text x="498" y="38" font-family="Arial" font-size="12" fill="white">Z</text>
  </g>
</svg>
